PathFileType	3	(X/Y/Z)	walking_3__view1_aligned.trc
DataRate	CameraRate	NumFrames	NumMarkers	Units	OrigDataRate	OrigDataStartFrame	OrigNumFrames
100.0	100.0	6	19	mm	100.0	2606	6348
Frame#	Time	pelvis			neck			head			hip_left			hip_right			knee_left			knee_right			ankle_left			ankle_right			heel_left			heel_right			toe_left			toe_right			shoulder_left			shoulder_right			elbow_left			elbow_right			wrist_left			wrist_right			
		X1	Y1	Z1	X2	Y2	Z2	X3	Y3	Z3	X4	Y4	Z4	X5	Y5	Z5	X6	Y6	Z6	X7	Y7	Z7	X8	Y8	Z8	X9	Y9	Z9	X10	Y10	Z10	X11	Y11	Z11	X12	Y12	Z12	X13	Y13	Z13	X14	Y14	Z14	X15	Y15	Z15	X16	Y16	Z16	X17	Y17	Z17	X18	Y18	Z18	X19	Y19	Z19	
2606	26.05000	11.439936	933.220308	152.247964	-58.624258	1476.713951	307.709402	-84.447758	1540.360244	464.680869	94.180496	934.515928	150.078029	-71.300271	931.924745	154.417577	109.913808	503.326715	210.359133	-115.816211	526.748914	358.178188	68.362133	197.188979	-75.201365	-138.387479	91.946361	376.562819	58.830625	182.795078	-128.212933	-141.219817	33.935672	350.841126	60.675785	38.443734	8.042144	-128.708636	66.282172	582.405083	129.474927	1468.261703	285.491435	-217.879814	1401.281606	237.665055	237.179529	1192.692283	244.051007	-251.018276	1117.317959	148.227449	255.980452	973.042461	383.935591	-302.200576	877.425748	161.586043
2607	26.06000	8.643635	933.748243	153.431955	-61.133312	1477.361797	308.355976	-86.465860	1540.707572	465.403491	91.408566	934.918583	151.412534	-74.120978	932.577954	155.451087	108.088535	505.541375	220.087812	-118.605832	525.164574	350.324162	67.714892	198.459696	-59.372451	-140.022228	91.440408	361.972034	58.385826	183.669361	-111.823019	-142.670141	33.910958	335.547786	59.459673	41.563756	24.666773	-130.330459	63.505128	567.045325	126.926436	1469.345205	284.699856	-220.872322	1402.009378	240.007540	233.467422	1194.077250	239.905358	-254.853802	1117.644429	154.322798	254.083171	972.868633	374.580866	-303.520466	880.394472	175.198074
2608	26.07000	5.847334	934.276178	154.615947	-63.642366	1478.009644	309.002550	-88.483962	1541.054901	466.126113	88.636636	935.321239	152.747039	-76.941686	933.231162	156.484597	106.263261	507.756034	229.816492	-121.395453	523.580233	342.470136	67.067650	199.730414	-43.543537	-141.656977	90.934455	347.381249	57.941028	184.543644	-95.433106	-144.120466	33.886244	320.254447	58.243561	44.683779	41.291403	-131.952282	60.728084	551.685567	124.377945	1470.428707	283.908276	-223.864830	1402.737150	242.350025	229.755314	1195.462216	235.759708	-258.689329	1117.970899	160.418147	252.185889	972.694804	365.226141	-304.840355	883.363196	188.810105
2609	26.08000	3.051033	934.804113	155.799938	-66.151420	1478.657490	309.649123	-90.502064	1541.402230	466.848735	85.864707	935.723895	154.081545	-79.762394	933.884371	157.518107	104.437988	509.970693	239.545171	-124.185073	521.995892	334.616110	66.420408	201.001131	-27.714623	-143.291726	90.428503	332.790465	57.496229	185.417927	-79.043192	-145.570791	33.861529	304.961107	57.027450	47.803801	57.916033	-133.574105	57.951040	536.325809	121.829454	1471.512209	283.116697	-226.857338	1403.464921	244.692509	226.043207	1196.847183	231.614058	-262.524856	1118.297369	166.513497	250.288608	972.520975	355.871416	-306.160245	886.331920	202.422136
2610	26.09000	0.254732	935.332048	156.983930	-68.660474	1479.305336	310.295697	-92.520166	1541.749559	467.571357	83.092777	936.126550	155.416050	-82.583102	934.537580	158.551616	102.612715	512.185352	249.273851	-126.974694	520.411551	326.762085	65.773167	202.271849	-11.885709	-144.926475	89.922550	318.199680	57.051431	186.292210	-62.653278	-147.021115	33.836815	289.667768	55.811338	50.923824	74.540662	-135.195928	55.173996	520.966051	119.280963	1472.595710	282.325117	-229.849846	1404.192693	247.034994	222.331100	1198.232150	227.468408	-266.360383	1118.623840	172.608846	248.391327	972.347147	346.516692	-307.480135	889.300644	216.034167
2611	26.10000	-2.541569	935.859983	158.167921	-71.169528	1479.953183	310.942270	-94.538268	1542.096888	468.293979	80.320848	936.529206	156.750555	-85.403810	935.190788	159.585126	100.787441	514.400011	259.002530	-129.764314	518.827210	318.908059	65.125925	203.542566	3.943204	-146.561224	89.416597	303.608895	56.606632	187.166493	-46.263365	-148.471440	33.812101	274.374428	54.595226	54.043846	91.165292	-136.817751	52.396952	505.606293	116.732471	1473.679212	281.533537	-232.842353	1404.920464	249.377479	218.618992	1199.617117	223.322758	-270.195910	1118.950310	178.704195	246.494045	972.173318	337.161967	-308.800025	892.269368	229.646199
